<svg height="47" viewBox="0 0 164 47" width="164" xmlns="http://www.w3.org/2000/svg"><g fill="none" fill-rule="evenodd" transform="translate(.9326)"><path d="m0 46.4036652h162.27385v-46.4036652h-162.27385z" fill="#0c1424"/><path d="m35.7794822 31.2091121v-11.2205077c1.3842403-1.018728 3.6313528-1.4366941 5.0155931-1.332262l1.4896232-3.631432c-.5229528-.1045113-1.1497039-.1305005-1.5934214-.1305005-1.698012 0-3.8143863.8098638-5.4339554 1.7765342l-.4183623-1.1495455c-.0522952-.1567273-.1568858-.235091-.3391269-.235091h-2.7700654v15.9228045zm15.753558-3.3438872c-2.5608842 0-4.1543056-2.0117045-4.1543056-4.6502392 0-2.6385348 1.6718643-4.6763077 3.9974197-4.6763077.705194 0 1.2542945.1044321 1.6980121.2873071.5483081.2352496 1.2012068.5224775 2.064079 1.1233186l2.6900376-1.95933c-1.4888308-1.9592507-3.5782651-3.1088753-6.6613098-3.1088753-4.2581038 0-8.0201948 3.370114-8.0201948 8.2293759 0 4.7284445 3.1868428 8.4120926 8.2816712 8.4120926 3.0561047 0 5.172479-1.2017615 6.6621022-3.1349438l-2.6654747-1.9331823c-.8359322.6269095-1.5149786.9143751-2.064079 1.1495454-.4960129.2089434-1.0966163.2612387-1.8279579.2612387zm16.4579596-12.9841265c-4.6764661 0-8.3854695 3.7358641-8.3854695 8.3338873 0 4.5979439 3.7090034 8.3075812 8.3854695 8.3075812s8.3862619-3.7357849 8.3862619-8.3336496c0-4.597944-3.7097958-8.3078189-8.3862619-8.3078189zm0 12.9841265c-2.3770583 0-4.2058085-1.8549771-4.2058085-4.6502392 0-2.7954999 1.8287502-4.6763077 4.2058085-4.6763077 2.3778507 0 4.2066009 1.8548979 4.2066009 4.6502393 0 2.7952621-1.8287502 4.6763076-4.2066009 4.6763076zm-47.4682704-9.5878648c2.5078758 0 3.6836481 1.4368525 3.6836481 3.9710344v4.519501c-1.8026026 1.1495455-3.1091923 1.59358-4.6764661 1.59358-1.6456375 0-2.6123872-.7054317-2.6123872-1.9855569 0-1.5935007 1.3589643-2.1681941 4.075942-2.1681941.4174907 0 1.0180941.0260684 1.2795705.052216v-2.5341026c-.366067-.0522953-1.0974086-.1044321-1.7763757-.1044321-4.1012972 0-7.2366372 1.7762964-7.2366372 4.9374671 0 3.1871598 2.0641582 4.963694 5.8784653 4.963694 1.7756626 0 3.7874463-.7314209 5.2509219-1.698012l.4175699 1.1493077c.0522953.1568066.1568858.2352495.3399193.2352495h2.8215683v-9.0130129c0-4.4412165-2.430146-7.3150008-6.9750023-7.3150008-3.0831239 0-5.4871223 1.2541359-6.8975102 2.9523064l2.5339442 1.7502281c.8097845-.5487043 1.4897024-.8881483 1.985636-1.0449549.44451-.1306589.9928181-.2613179 1.9071932-.2613179z" fill="#fffffe"/><g fill="#d86038"><path d="m135.546998 31.1891448h13.46762v-2.6802917h-13.46762z"/><path d="m133.321279 21.8147398c-.233744-.5907782-.568117-1.0845724-1.003119-1.481145-.435794-.3964933-.952408-.6956858-1.550634-.8978942-.599019-.2018915-1.255879-.3033126-1.971374-.3033126-.995195 0-1.803395.1633831-2.425392.4899117s-1.088692.6763523-1.399295 1.0495505v-5.7907518h-2.659136v16.3097104h2.659136v-6.2740078c0-1.010646.267816-1.8229661.804238-2.4373564.536423-.6141527 1.33353-.9213478 2.390529-.9213478 1.041944 0 1.776455.2646458 2.204325.7929866.427871.5288163.641806 1.3061936.641806 2.3324489v6.5072765h2.658344v-7.3002631c0-.7930659-.116476-1.4847899-.349428-2.0758059"/><path d="m93.5499235 28.5552849c-.1711482.1246371-.4516411.2564846-.839894.3964934-.3890452.1398502-.8081998.2098942-1.2590485.2098942-.2804929 0-.5483081-.030981-.8050304-.0932599-.2567224-.061962-.4825429-.1709897-.6766693-.3265286-.1941265-.1553011-.3454658-.3615505-.4548105-.6180351-.1085524-.2566431-.1632247-.5868165-.1632247-.9913918v-5.6196037h4.3373391l.7226258-2.4490832h-5.0599649v-4.1826718h-2.6583436v12.7878607c0 1.1508132.3494276 2.0797676 1.0490751 2.7871802.6996475.7078087 1.7336679 1.0611981 3.1020611 1.0611981.4817505 0 .9254681-.0429456 1.329568-.128282.4040999-.0856533.7701669-.1905608 1.0966163-.314881.3264493-.1242409.6021881-.2564846.8280086-.3964933.2250282-.1398503.4001382-.2564846.5245376-.3498237z"/><path d="m106.393962 25.5944211c.518199-.3216953.879512-.7066202 1.083146-1.1540619.204427-.4474416.306641-.945673.306641-1.4954866 0-.5335704-.110137-1.0363182-.329619-1.5072135-.220274-.4710537-.545931-.8832356-.977763-1.2365457-.431832-.3531516-.961917-.6357839-1.58946-.8478175-.628336-.2118751-1.350961-.3178919-2.167085-.3178919-.92626 0-1.778039.1530825-2.555337.4592477-.7765062.3062443-1.4523831.7381558-2.0252542 1.2953383-.5728711.5574994-1.0205504 1.2246604-1.3422456 2.0018001-.3216952.7771396-.4825429 1.6367631-.4825429 2.5787913 0 .9891732.1648094 1.8645646.4944282 2.6259364.3296187.7617679.7804675 1.4053169 1.3541309 1.9311222.572871.5262807 1.2400321.9225363 2.0014836 1.1893215.761451.2668644 1.582328.4003759 2.46184.4003759.627543 0 1.204376-.0470658 1.730498-.1412765.526122-.0942108.988856-.2038724 1.389787-.3297773.400138-.1254294.733719-.2590201 1.000741-.4002174.267023-.1413557.462734-.2510173.588719-.3298564l-.988857-1.8839772c-.09429.047145-.240083.1176644-.435794.2119543-.196503.0942108-.431832.1883423-.706778.2826323-.274947.0941315-.584757.1728913-.930223.2354872-.345465.0629128-.722625.0942108-1.130687.0942108-.587133 0-1.107709-.0588719-1.563312-.1755062-1.458722-.275818-2.5656384-1.6585528-2.5656384-3.4764478 0-.4581384.0277324-.8877521.0903282-1.2790951.0419947-.3148018.1204377-.6258795.2353288-.9331539.1648094-.4393596.3961764-.8279294.6948934-1.1657094.297925-.3375423.667161-.6082892 1.106917-.8125578.438963-.2037931.950031-.3060858 1.530825-.3060858.706779 0 1.298667.1493585 1.77804.4474416.478581.2984.718664.7458416.718664 1.3423248 0 .2355665-.047541.4632887-.141831.6830081-.09429.2200364-.290794.4161437-.588718.5887974-.298717.1729706-.714702.3142471-1.247956.4239087-.534046.1100578-1.232901.1648094-2.096565.1648094-.207597 0-.415986 0-.624374 0v1.8572749c.155301.0021394.316941.0032487.483335.0032487 1.350169 0 2.465009-.0900906 3.344521-.2708262.878719-.1803395 1.577574-.4316738 2.095773-.7535275"/><path d="m118.105729 28.8204854c-.479374.2118752-1.110879.3178127-1.895308.3178127-.549893 0-1.060168-.0743227-1.530826-.2236812-.47145-.1490415-.887435-.3804085-1.247956-.6946556-.361312-.3139302-.644182-.7142268-.847817-1.2010484-.20205-.4807204-.303471-1.0619112-.305848-1.7425422.002377-.6805518.103798-1.2617426.305848-1.7425423.203635-.4868215.486505-.8871181.847817-1.2009691.360521-.3142471.776506-.5456933 1.247956-.6947349.470658-.1492793.980933-.2236812 1.530826-.2236812.784429 0 1.415934.1059376 1.895308.3178919.478581.2119544.804238.3727228.976971.4827806l1.130687-2.0016416c-.18858-.1258256-.420739-.2552961-.694893-.3885698-.274947-.1335114-.588719-.2590201-.942108-.3766845-.353389-.1177436-.753527-.2157577-1.200414-.2943591-.44768-.0784429-.953993-.1178228-1.518941-.1178228-.879511 0-1.703558.1335906-2.472933.4003758-.769374.2667852-1.444459.6629616-2.025253 1.1891631-.580795.5258053-1.04036 1.1733952-1.37711 1.9427698-.338334.7689783-.506313 1.6560965-.506313 2.6609583 0 .0159263.000792.0312187.000792.0470658 0 .015847-.000792.0312187-.000792.0470657 0 1.0049411.167979 1.8920592.506313 2.6609584.33675.7693745.796315 1.4170437 1.37711 1.9427698.580794.5262014 1.255879.9224571 2.025253 1.1892422.769375.2667852 1.593422.4002967 2.472933.4002967.564948 0 1.071261-.03938 1.518941-.1177437.446887-.0786806.847025-.1766154 1.200414-.294359.353389-.1176644.667161-.2431731.942108-.3767638.274154-.1331945.506313-.2626649.694893-.3884905l-1.130687-2.0016416c-.172733.1100578-.49839.2707469-.976971.4827805"/><path d="m80.1908556 31.1891448h2.7399559v-2.6802917h-2.7399559z"/><path d="m80.1908556 21.7164089h2.7399559v-2.680371h-2.7399559z"/></g></g></svg>